<svg preserveAspectRatio="none" width="100%" height="100%" overflow="visible" style="display: block;" viewBox="0 0 24 24" fill="none" xmlns="http://www.w3.org/2000/svg">
<g id="car">
<path id="vector" d="M18.25 16.4287C18.6642 16.4287 19 16.7645 19 17.1787V17.5C19 18.0523 19.4477 18.5 20 18.5C20.5523 18.5 21 18.0523 21 17.5V10.9639L17.9512 6.08789C17.7228 5.72244 17.3226 5.50003 16.8916 5.5H7.1084C6.67745 5.50003 6.27723 5.72244 6.04883 6.08789L3 10.9639V17.5C3 18.0523 3.44772 18.5 4 18.5C4.55228 18.5 5 18.0523 5 17.5V17.1787C5 16.7645 5.33579 16.4287 5.75 16.4287H18.25ZM7.75 12.2861C8.16421 12.2861 8.5 12.6219 8.5 13.0361C8.49977 13.4502 8.16407 13.7861 7.75 13.7861H5.75C5.33593 13.7861 5.00023 13.4502 5 13.0361C5 12.6219 5.33579 12.2861 5.75 12.2861H7.75ZM18.25 12.2861C18.6642 12.2861 19 12.6219 19 13.0361C18.9998 13.4502 18.6641 13.7861 18.25 13.7861H16.25C15.8359 13.7861 15.5002 13.4502 15.5 13.0361C15.5 12.6219 15.8358 12.2861 16.25 12.2861H18.25ZM22.5 17.5C22.5 18.8807 21.3807 20 20 20C18.7656 20 17.7425 19.105 17.5391 17.9287H6.46094C6.25746 19.105 5.23439 20 4 20C2.61929 20 1.5 18.8807 1.5 17.5V11.5H0.75C0.335786 11.5 0 11.1642 0 10.75C0 10.3358 0.335786 10 0.75 10H1.83496L4.77637 5.29297C5.27888 4.48895 6.16026 4.00003 7.1084 4H16.8916C17.8397 4.00003 18.7211 4.48895 19.2236 5.29297L22.165 10H23.25C23.6642 10 24 10.3358 24 10.75C24 11.1642 23.6642 11.5 23.25 11.5H22.5V17.5Z" fill="var(--fill-0, #191329)"/>
</g>
</svg>
