<svg preserveAspectRatio="none" width="100%" height="100%" overflow="visible" style="display: block;" viewBox="0 0 24 24" fill="none" xmlns="http://www.w3.org/2000/svg">
<g id="sync">
<g id="vector">
<path d="M3.99902 9.48047C4.82104 9.58297 5.40517 10.3323 5.30273 11.1543C5.26827 11.4307 5.25 11.713 5.25 12C5.25 15.7279 8.27208 18.75 12 18.75C13.2983 18.75 14.5267 18.3827 15.5723 17.75H15.2617C14.4333 17.7499 13.7617 17.0784 13.7617 16.25C13.7617 15.4216 14.4333 14.7501 15.2617 14.75H18.5117C19.7544 14.75 20.7617 15.7574 20.7617 17V20.25C20.7617 21.0784 20.0901 21.75 19.2617 21.75C18.4333 21.7499 17.7617 21.0784 17.7617 20.25V19.8955C16.1334 21.0609 14.1332 21.75 12 21.75C6.61522 21.75 2.25 17.3848 2.25 12C2.25 11.5886 2.27542 11.1824 2.3252 10.7832C2.42769 9.96127 3.17711 9.37819 3.99902 9.48047Z" fill="var(--fill-0, #191329)"/>
<path d="M12 2.25C17.3848 2.25 21.75 6.61522 21.75 12C21.75 12.4114 21.7246 12.8176 21.6748 13.2168C21.5723 14.0387 20.8229 14.6218 20.001 14.5195C19.179 14.417 18.5948 13.6677 18.6973 12.8457C18.7317 12.5693 18.75 12.287 18.75 12C18.75 8.27208 15.7279 5.25 12 5.25C10.7017 5.25 9.47332 5.61731 8.42773 6.25H8.75C9.57843 6.25 10.25 6.92157 10.25 7.75C10.25 8.57843 9.57843 9.25 8.75 9.25H5.5C4.25736 9.25 3.25 8.24264 3.25 7V3.75C3.25 2.92157 3.92157 2.25 4.75 2.25C5.57843 2.25 6.25 2.92157 6.25 3.75V4.09473C7.87605 2.9347 9.87221 2.25 12 2.25Z" fill="var(--fill-0, #191329)"/>
</g>
</g>
</svg>
