<svg preserveAspectRatio="none" width="100%" height="100%" overflow="visible" style="display: block;" viewBox="0 0 24 24" fill="none" xmlns="http://www.w3.org/2000/svg">
<g id="bluetooth">
<path id="vector" d="M9.95866 3.85082C9.95901 2.57946 11.4417 1.88471 12.4186 2.69848L16.9909 6.50903C17.7146 7.11226 17.7094 8.22587 16.9801 8.8225L13.0964 11.9993L16.9801 15.178C17.7094 15.7747 17.7147 16.8883 16.9909 17.4914L12.4186 21.301C11.4416 22.1152 9.95866 21.4204 9.95866 20.1487V14.5666L5.76628 17.9973C5.44581 18.2593 4.97386 18.212 4.71159 17.8918C4.44929 17.5713 4.49647 17.0985 4.81706 16.8362L9.95866 12.6282V11.3713L4.81706 7.16332C4.49651 6.90102 4.4493 6.42921 4.71159 6.10864C4.97388 5.78811 5.44571 5.74093 5.76628 6.00317L9.95866 9.43286V3.85082ZM16.0299 16.3391L11.9118 12.969L11.4587 13.3401V20.1487L16.0299 16.3391ZM11.4587 10.6594L11.9118 11.0305L16.0299 7.66137L11.4587 3.85082V10.6594Z" fill="var(--fill-0, #191329)"/>
</g>
</svg>
