<svg preserveAspectRatio="none" width="100%" height="100%" overflow="visible" style="display: block;" viewBox="0 0 24 24" fill="none" xmlns="http://www.w3.org/2000/svg">
<g id="pin">
<path id="vector" d="M17.1265 2.98454C16.0526 1.9106 14.3114 1.9106 13.2375 2.98454L11.6486 4.57337C10.4296 5.79236 8.77633 6.47718 7.05243 6.47718L6.51994 6.47718C6.32103 6.47718 6.13026 6.5562 5.98961 6.69685L4.04507 8.64139C3.90441 8.78205 3.8254 8.97281 3.8254 9.17172C3.8254 9.37064 3.90441 9.5614 4.04507 9.70205L8.64126 14.2982L4.92895 18.0106C4.63606 18.3035 4.63606 18.7783 4.92895 19.0712C5.22184 19.3641 5.69672 19.3641 5.98961 19.0712L9.70192 15.3589L14.2981 19.9551C14.591 20.248 15.0659 20.248 15.3588 19.9551L17.3033 18.0106C17.444 17.8699 17.523 17.6791 17.523 17.4802V16.9477C17.523 15.2238 18.2078 13.5705 19.4268 12.3515L21.0156 10.7627C22.0896 9.68877 22.0896 7.94757 21.0156 6.87363L17.1265 2.98454Z" fill="var(--fill-0, #191329)"/>
</g>
</svg>
