<svg preserveAspectRatio="none" width="100%" height="100%" overflow="visible" style="display: block;" viewBox="0 0 24 24" fill="none" xmlns="http://www.w3.org/2000/svg">
<g id="rocket">
<path id="vector" d="M6.21191 19.0128C6.50062 18.7158 6.97547 18.7095 7.27246 18.9981C7.56942 19.2868 7.57674 19.7617 7.28809 20.0587L5.62109 21.7725C5.33243 22.0694 4.85755 22.0767 4.56055 21.7881C4.26358 21.4994 4.25722 21.0246 4.5459 20.7276L6.21191 19.0128ZM14.5 15.0001C14.5 14.716 14.661 14.4562 14.915 14.3292C16.8226 13.3753 18.3118 12.1556 19.2803 10.3897C20.1889 8.73274 20.6785 6.52218 20.54 3.45905C17.4774 3.32076 15.2672 3.81121 13.6104 4.71979C11.8444 5.68824 10.6247 7.17744 9.6709 9.08502C9.54385 9.33911 9.28408 9.50006 9 9.50006H6.87207C6.52451 9.50008 6.19255 9.64478 5.95605 9.89948L3.97949 12.0274C4.32993 12.2089 4.75914 12.4363 5.22168 12.6993C6.38684 13.3617 7.83865 14.2782 8.78027 15.2198C9.72188 16.1614 10.6384 17.6132 11.3008 18.7784C11.5634 19.2404 11.7903 19.6694 11.9717 20.0196L14.1006 18.044C14.3553 17.8075 14.5 17.4755 14.5 17.128V15.0001ZM3.99023 16.7276C4.27896 16.4306 4.75379 16.4233 5.05078 16.712C5.34774 17.0007 5.35408 17.4755 5.06543 17.7725L2.28809 20.6299C1.99936 20.9269 1.52453 20.9333 1.22754 20.6446C0.930561 20.3559 0.923206 19.881 1.21191 19.584L3.99023 16.7276ZM16.5 8.50006C16.5 7.94778 16.0523 7.50006 15.5 7.50006C14.9477 7.50006 14.5 7.94778 14.5 8.50006C14.5 9.05231 14.9477 9.50006 15.5 9.50006C16.0523 9.50006 16.5 9.05231 16.5 8.50006ZM16 17.128C16 17.8926 15.6813 18.6223 15.1211 19.1426L12.2607 21.7999C12.0854 21.9627 11.8424 22.0319 11.6074 21.9864C11.3724 21.9408 11.1731 21.7852 11.0713 21.5684L11.0703 21.5674C11.0703 21.5674 11.0689 21.5629 11.0674 21.5596C11.0643 21.5532 11.059 21.5435 11.0527 21.5303C11.0401 21.5038 11.0211 21.4636 10.9961 21.4122C10.946 21.3091 10.8716 21.1586 10.7773 20.9727C10.5884 20.6002 10.319 20.0859 9.99707 19.5196C9.34198 18.3673 8.50812 17.0687 7.71973 16.2803C6.93132 15.4919 5.6328 14.6581 4.48047 14.003C3.91389 13.6809 3.39896 13.4117 3.02637 13.2227C2.84037 13.1284 2.68997 13.0541 2.58691 13.004C2.53566 12.979 2.49616 12.96 2.46973 12.9473C2.45665 12.9411 2.44688 12.9357 2.44043 12.9327C2.43721 12.9312 2.43262 12.9297 2.43262 12.9297L2.43164 12.9288C2.21489 12.827 2.0593 12.6277 2.01367 12.3926C1.96815 12.1577 2.03733 11.9147 2.2002 11.7393L4.85742 8.87897C5.37773 8.3187 6.10746 8.00008 6.87207 8.00006H8.54395C9.56639 6.08999 10.9216 4.48459 12.8896 3.40533C14.8603 2.32465 17.3726 1.81142 20.6396 1.96295L21.3037 2.00201L21.4395 2.02448C21.7454 2.10417 21.9747 2.37104 21.998 2.69635C22.2547 6.2896 21.7475 9.00833 20.5947 11.1104C19.5155 13.0784 17.9101 14.4337 16 15.4561V17.128ZM18 8.50006C18 9.88074 16.8807 11.0001 15.5 11.0001C14.1193 11.0001 13 9.88074 13 8.50006C13 7.11935 14.1193 6.00006 15.5 6.00006C16.8807 6.00006 18 7.11935 18 8.50006Z" fill="var(--fill-0, #191329)"/>
</g>
</svg>
